<svg xmlns="http://www.w3.org/2000/svg" viewBox="0 0 54.39 13.38">
<g fill="none" fill-rule="evenodd">
      <path
        d="M8.4.5,7.09,8c-.08.37-.22.51-.6.51H5.13c-.38,0-.48-.14-.42-.51L5.2,5.24H2.88L2.38,8a.51.51,0,0,1-.6.51H.43C.06,8.52,0,8.38,0,8L1.34.5a.51.51,0,0,1,.6-.5H3.3c.38,0,.49.13.42.5L3.25,3.15H5.57L6,.5a.51.51,0,0,1,.6-.5H8C8.37,0,8.48.13,8.4.5Z"
        fill="#FFFFFF"
      />
      <path
        d="M15.74.5l-.19,1.08c-.08.39-.23.51-.6.51H11.77l-.18,1.08h2.53c.38,0,.48.13.42.51l-.19,1.07c-.08.38-.22.52-.6.52H11.22L11,6.42h3.28c.37,0,.48.12.4.5L14.5,8a.51.51,0,0,1-.6.51H8.78c-.38,0-.49-.14-.42-.51L9.68.5a.51.51,0,0,1,.6-.5h5C15.69,0,15.8.13,15.74.5Z"
        fill="#FFFFFF"
      />
      <path
        d="M24,.5,22.65,8a.51.51,0,0,1-.6.51H20.73a.42.42,0,0,1-.44-.24L19,5.42A7.37,7.37,0,0,1,18.33,3h-.09a11.52,11.52,0,0,1-.15,3.1l-.35,2c-.07.37-.22.51-.6.51H15.89c-.39,0-.5-.14-.42-.51L16.78.5c.08-.37.22-.5.6-.5h1.37c.27,0,.4.07.47.24L20.6,3.32a10.17,10.17,0,0,1,.66,2.18h.09a8.51,8.51,0,0,1,0-3l.35-2a.5.5,0,0,1,.59-.5h1.26C23.93,0,24,.13,24,.5Z"
        fill="#FFFFFF"
      />
      <path
        d="M31.73.5l-.19,1.08c-.07.39-.22.51-.6.51H29.15L28.12,8c-.07.37-.22.51-.6.51H26.17c-.39,0-.49-.14-.42-.51l1-5.92H25c-.38,0-.48-.12-.42-.51L24.78.5c.07-.37.21-.5.6-.5h5.93C31.69,0,31.79.13,31.73.5Z"
        fill="#FFFFFF"
      />
      <path
        d="M29.63,8l4.1-7.6A.64.64,0,0,1,34.42,0h1.36c.35,0,.49.08.55.4L37.77,8c.06.33-.08.5-.44.5H36.09c-.62,0-.78-.14-.82-.51l-.12-.86h-2.6L32.12,8c-.17.37-.36.51-.95.51H29.85C29.48,8.52,29.45,8.35,29.63,8Zm5.12-4.16a7.28,7.28,0,0,1,0-1.69h-.1a8,8,0,0,1-.54,1.68l-.7,1.42h1.5Z"
        fill="#FFFFFF"
      />
      <path
        d="M40.36,0h1.42c.36,0,.47.12.4.48L40.84,8c-.06.36-.2.48-.56.48H38.86c-.35,0-.45-.12-.39-.48L39.8.48C39.87.12,40,0,40.36,0Z"
        fill="#FFFFFF"
      />
      <path
        d="M50.63.5,49.3,8a.51.51,0,0,1-.6.51H47.38a.42.42,0,0,1-.44-.24l-1.3-2.86A7.61,7.61,0,0,1,45,3h-.09a11.52,11.52,0,0,1-.15,3.1L44.4,8c-.08.37-.23.51-.6.51H42.54c-.39,0-.49-.14-.42-.51L43.44.5c.07-.37.21-.5.6-.5H45.4c.27,0,.4.07.47.24l1.38,3.08a9.64,9.64,0,0,1,.66,2.18H48a8.07,8.07,0,0,1,0-3l.34-2a.5.5,0,0,1,.59-.5H50.2C50.58,0,50.69.13,50.63.5Z"
        fill="#1047E2"
      />
      <path
        d="M52.48,0H53.9c.36,0,.47.12.39.48L53,8c-.06.36-.2.48-.56.48H51c-.36,0-.45-.12-.39-.48L51.92.48C52,.12,52.12,0,52.48,0Z"
        fill="#1047E2"
      />
    </g>
</svg>